<?xml version="1.0" encoding="utf-8"?>
<svg version="1.1" id="Layer_1" xmlns="http://www.w3.org/2000/svg" xmlns:xlink="http://www.w3.org/1999/xlink" x="0px" y="0px"
	 width="349.893px" height="349px" viewBox="0 0 349.893 349" enable-background="new 0 0 349.893 349" xml:space="preserve">
<radialGradient id="SVGID_1_" cx="176.3735" cy="335.4014" r="319.8778" gradientUnits="userSpaceOnUse">
	<stop  offset="0" style="stop-color:#945087"/>
	<stop  offset="0.5293" style="stop-color:#968990"/>
	<stop  offset="1" style="stop-color:#859977"/>
</radialGradient>


<path fill="url(#SVGID_1_)" d="M337.415,176.298c0,88.735-71.95,160.663-160.679,160.663c-88.745,0-160.673-71.928-160.673-160.663
	c0-88.744,71.928-160.666,160.673-160.666C265.465,15.632,337.415,87.554,337.415,176.298z"/>

<g class="third">
	<path fill="none" class="logoline"  stroke-miterlimit="10" d="M149.884,80.477
		c-2.627-17.56,8.884-23.749,9.032-38.513c0.148-14.42-8.831-101.57-8.831-101.57"/>
	<path fill="none" class="logoline"  stroke-miterlimit="10" d="M106.653,111.668
		c-8.906-17.291,2.055-23.743-6.547-41.072c-5.193-10.558-12.561-38.08-49.562-80.61"/>
	<path fill="none" class="logoline"  stroke-miterlimit="10" d="M127.525,89.397
		c-6.146-19.359,4.829-22.418,0.401-41.272c-4.271-18.266-29.955-90.478-29.955-90.478"/>
	<path fill="none" class="logoline"  stroke-miterlimit="10" d="M67.219,148.454
		c-13.273-10.454-2.73-21.25-18.013-34.555c-12.524-10.9-23.848-18.586-55.463-34.575"/>
	<path fill="none" class="logoline"  stroke-miterlimit="10" d="M90.226,127.114
		c-14.821-15.037-4.02-23.824-17.687-38.802c-11.823-12.97-32.731-34.71-64.354-50.687"/>
	<path fill="none" class="logoline"  stroke-miterlimit="10" d="M45.908,196.477
		c-17.491-4.435-12.068-14.464-27.56-17.947c-13.839-3.11-27.083-3.407-54.836-0.32"/>
	<path fill="none" class="logoline"  stroke-miterlimit="10" d="M60.128,219.519
		c-22.328-1.89-23.854-11.398-39.681-12.559c-14.144-1.02-27.933,3.348-54.919,10.535"/>
	<path fill="none" class="logoline"  stroke-miterlimit="10" d="M60.128,175.122
		c-14.168-6.466-8.281-18.633-22.812-24.979c-12.434-5.454-29.13-11.109-56.525-11.936"/>
	<path fill="none" class="logoline"  stroke-miterlimit="10" d="M60.886,249.513
		c-9.031,0-18.497-17.084-33.563-13.408"/>
	<path fill="none" class="logoline"  stroke-miterlimit="10" d="M204.72,80.477
		c2.627-17.56-8.884-23.749-9.032-38.513c-0.148-14.42,8.831-101.57,8.831-101.57"/>
	<path fill="none" class="logoline"  stroke-miterlimit="10" d="M247.95,111.668
		c8.906-17.291-2.055-23.743,6.547-41.072c5.193-10.558,12.561-38.08,49.562-80.61"/>
	<path fill="none" class="logoline"  stroke-miterlimit="10" d="M227.078,89.397
		c6.146-19.359-4.829-22.418-0.401-41.272c4.271-18.266,29.955-90.478,29.955-90.478"/>
	<path fill="none" class="logoline"  stroke-miterlimit="10" d="M287.385,148.454
		c13.273-10.454,2.73-21.25,18.013-34.555c12.524-10.9,23.848-18.586,55.463-34.575"/>
	<path fill="none" class="logoline"  stroke-miterlimit="10" d="M264.378,127.114
		c14.821-15.037,4.02-23.824,17.687-38.802c11.823-12.97,32.731-34.71,64.354-50.687"/>
	<path fill="none" class="logoline"  stroke-miterlimit="10" d="M308.695,196.477
		c17.491-4.435,12.068-14.464,27.56-17.947c13.839-3.11,27.083-3.407,54.836-0.32"/>
	<path fill="none" class="logoline"  stroke-miterlimit="10" d="M294.476,219.519
		c22.328-1.89,23.854-11.398,39.681-12.559c14.144-1.02,27.933,3.348,54.919,10.535"/>
	<path fill="none" class="logoline"  stroke-miterlimit="10" d="M294.476,175.122
		c14.168-6.466,8.281-18.633,22.812-24.979c12.434-5.454,29.13-11.109,56.525-11.936"/>
	<path fill="none" class="logoline"  stroke-miterlimit="10" d="M293.718,249.513
		c9.031,0,18.497-17.084,33.563-13.408"/>
</g>


<g class="second">
	<path fill="none" class="logoline"  stroke-miterlimit="10" d="M140.583,18.26c0,0,8.973,56.86,12.381,85.589
		c3.154,26.606-7.671,38.184-2.396,56.674"/>
	<path fill="none" class="logoline"  stroke-miterlimit="10" d="M128.968,180.91
		c-12.426-22.836-4.984-29.331-12.18-47.263C103.29,99.993,83.364,73.007,67.219,53.028"/>
	<path fill="none" class="logoline"  stroke-miterlimit="10" d="M110.144,207.146
		c-23.333-21.666-17.925-36.794-33.229-50.135c-12.509-10.877-26.913-25.461-58.565-41.474"/>
	<path fill="none" class="logoline"  stroke-miterlimit="10" d="M98.075,230.836
		c-16.898-6.792-21.444-23.957-36.17-29.866c-11.829-4.74-35.61-8.936-61.905-8.141"/>
	<path fill="none" class="logoline"  stroke-miterlimit="10" d="M110.144,269.609
		c-17.188-2.165-14.807-20.097-49.644-20.224c-11.912-0.037-21.443,1.05-33.178,6.095"/>
	<path fill="none" class="logoline"  stroke-miterlimit="10" d="M116.542,298.136
		c-19.047,0-21.391-6.227-29.731-6.703c-9.896-0.551-18.81,6.703-18.81,6.703"/>
	<path fill="none" class="logoline"  stroke-miterlimit="10" d="M214.021,18.26c0,0-8.973,56.86-12.381,85.589
		c-3.154,26.606,7.671,38.184,2.396,56.674"/>
	<path fill="none" class="logoline"  stroke-miterlimit="10" d="M225.636,180.91
		c12.426-22.836,4.984-29.331,12.18-47.263c13.498-33.654,33.424-60.641,49.569-80.619"/>
	<path fill="none" class="logoline"  stroke-miterlimit="10" d="M244.46,207.146
		c23.333-21.666,17.925-36.794,33.229-50.135c12.509-10.877,26.913-25.461,58.565-41.474"/>
	<path fill="none" class="logoline"  stroke-miterlimit="10" d="M256.528,230.836
		c16.898-6.792,21.444-23.957,36.17-29.866c11.829-4.74,35.61-8.936,61.905-8.141"/>
	<path fill="none" class="logoline"  stroke-miterlimit="10" d="M244.46,269.609
		c17.188-2.165,14.807-20.097,49.644-20.224c11.912-0.037,21.443,1.05,33.178,6.095"/>
	<path fill="none" class="logoline"  stroke-miterlimit="10" d="M238.062,298.136
		c19.047,0,21.391-6.227,29.731-6.703c9.896-0.551,18.81,6.703,18.81,6.703"/>
</g>


<g class="first">
	<path fill="none" class="logoline"  stroke-miterlimit="10" d="M167.153,336.961
		c0-92.062-70.604-167.48-160.672-175.151"/>
	<path fill="none" class="logoline"  stroke-miterlimit="10" d="M170.271,336.961
		c0-107.627-53.959-202.658-136.289-259.496"/>
	<path fill="none" class="logoline"  stroke-miterlimit="10" d="M100.106,27.544
		c46.89,93.009,73.289,198.144,73.289,309.417"/>
	<path fill="none" class="logoline"  stroke-miterlimit="10" d="M162.451,336.961
		c0-38.4-31.124-69.517-69.495-69.517c-19.04,0-36.266,7.642-48.834,20.03"/>
	<path fill="none" class="logoline"  stroke-miterlimit="10" d="M159.325,336.961
		c0-21.421-17.358-38.825-38.817-38.825c-17.291,0-31.958,11.341-36.972,26.98"/>
	<path fill="none" class="logoline"  stroke-miterlimit="10" d="M164.028,336.961
		c0-65.343-53-118.319-118.328-118.319c-12.246,0-24.055,1.852-35.163,5.305"/>
	<path fill="none" class="logoline"  stroke-miterlimit="10" d="M187.45,336.961
		c0-92.062,70.604-167.48,160.672-175.151"/>
	<path fill="none" class="logoline"  stroke-miterlimit="10" d="M184.332,336.961
		c0-107.627,53.959-202.658,136.289-259.496"/>
	<path fill="none" class="logoline"  stroke-miterlimit="10" d="M254.497,27.544
		c-46.89,93.009-73.289,198.144-73.289,309.417"/>
	<path fill="none" class="logoline"  stroke-miterlimit="10" d="M192.152,336.961
		c0-38.4,31.124-69.517,69.495-69.517c19.04,0,36.266,7.642,48.834,20.03"/>
	<path fill="none" class="logoline"  stroke-miterlimit="10" d="M195.278,336.961
		c0-21.421,17.358-38.825,38.817-38.825c17.291,0,31.958,11.341,36.972,26.98"/>
	<path fill="none" class="logoline"  stroke-miterlimit="10" d="M190.575,336.961
		c0-65.343,53-118.319,118.328-118.319c12.246,0,24.055,1.852,35.163,5.305"/>
	<path fill="none" class="logoline"  stroke-miterlimit="10" d="M177.302, 336.961 177.302,10.436"/>
</g>

</svg>
